<?xml version="1.0" encoding="UTF-8" standalone="no"?>
<svg width="123.825mm" height="121.708mm"
 xmlns="http://www.w3.org/2000/svg" xmlns:xlink="http://www.w3.org/1999/xlink"  version="1.2" baseProfile="tiny">
<desc>Created by EvoPdf</desc>
<defs>
</defs>
<g fill="none" stroke="black" stroke-width="1" fill-rule="evenodd" stroke-linecap="square" stroke-linejoin="bevel" >

<g fill="#000000" fill-opacity="1" stroke="#000000" stroke-opacity="1" stroke-width="1" stroke-linecap="square" stroke-linejoin="miter" stroke-miterlimit="2" transform="matrix(1,0,0,1,0,0)"
>
</g>

<g fill="#000000" fill-opacity="1" stroke="#000000" stroke-opacity="1" stroke-width="1" stroke-linecap="square" stroke-linejoin="miter" stroke-miterlimit="2" transform="matrix(1,0,0,1,0,0)"
>
</g>

<g fill="#000000" fill-opacity="1" stroke="#000000" stroke-opacity="1" stroke-width="1" stroke-linecap="square" stroke-linejoin="miter" stroke-miterlimit="2" transform="matrix(1,0,0,1,0,0)"
>
</g>

<g fill="#226eff" fill-opacity="1" stroke="none" transform="matrix(0.707107,0.707107,-0.707107,0.707107,238,25.868)"
>
<path vector-effect="none" fill-rule="evenodd" d="M50,250 L0,300 L300,300 L250,250 L50,250"/>
</g>

<g fill="#2297ff" fill-opacity="1" stroke="none" transform="matrix(0.707107,0.707107,-0.707107,0.707107,238,25.868)"
>
<path vector-effect="none" fill-rule="evenodd" d="M250,50 L250,250 L300,300 L300,0 L250,50"/>
</g>

<g fill="#226eff" fill-opacity="1" stroke="none" transform="matrix(0.707107,0.707107,-0.707107,0.707107,238,25.868)"
>
<path vector-effect="none" fill-rule="evenodd" d="M0,0 L50,50 L150,50 L200,0 L0,0"/>
</g>

<g fill="#2297ff" fill-opacity="1" stroke="none" transform="matrix(0.707107,0.707107,-0.707107,0.707107,238,25.868)"
>
<path vector-effect="none" fill-rule="evenodd" d="M150,50 L150,150 L200,200 L200,0 L150,50"/>
</g>

<g fill="#000000" fill-opacity="1" stroke="#000000" stroke-opacity="1" stroke-width="1" stroke-linecap="square" stroke-linejoin="miter" stroke-miterlimit="2" transform="matrix(1,0,0,1,0,0)"
>
</g>

<g fill="#000000" fill-opacity="1" stroke="#000000" stroke-opacity="1" stroke-width="1" stroke-linecap="square" stroke-linejoin="miter" stroke-miterlimit="2" transform="matrix(1,0,0,1,0,0)"
>
</g>

<g fill="#000000" fill-opacity="1" stroke="#000000" stroke-opacity="1" stroke-width="1" stroke-linecap="square" stroke-linejoin="miter" stroke-miterlimit="2" transform="matrix(1,0,0,1,0,0)"
>
</g>

<g fill="#000000" fill-opacity="1" stroke="#000000" stroke-opacity="1" stroke-width="1" stroke-linecap="square" stroke-linejoin="miter" stroke-miterlimit="2" transform="matrix(1,0,0,1,0,0)"
>
</g>
</g>
</svg>
